<svg fill="none" xmlns="http://www.w3.org/2000/svg">
      <path
    d="M16.771 15.36c0 1.016-.88 1.651-1.66 1.651-.779 0-1.714-.316-1.714-1.651v-.65h-1.026v.65c0 1.479 1.23 2.682 2.74 2.682 1.512 0 2.742-1.203 2.742-2.682v-.65h-1.082v.65zM8.148 12.223c0-.971.842-1.76 1.876-1.76 1.034 0 1.875.79 1.875 1.76h1.182c0-1.583-1.37-2.87-3.057-2.87-1.686 0-3.058 1.287-3.058 2.87h1.182zM17.886 12.223c0-.971.842-1.76 1.875-1.76 1.035 0 1.876.79 1.876 1.76h1.182c0-1.583-1.371-2.87-3.058-2.87-1.686 0-3.057 1.287-3.057 2.87h1.182z"
    fill="#130B43"
  />
      <path
    fillRule="evenodd"
    clipRule="evenodd"
    d="M24.726 8.458V4.644c0-1.286-.156-2.178-.469-2.676-.313-.498-.963-.883-1.952-1.153-.299-.084-.448-.219-.448-.405 0-.251.336-.377 1.008-.377h1.021c1.11 0 1.952.345 2.526 1.034.574.69.86 1.695.86 3.018v4.024c0 .931.101 1.648.302 2.151.2.503.571.974 1.112 1.412.159.13.238.237.238.32 0 .085-.08.192-.238.322-.55.447-.924.92-1.12 1.418-.195.499-.293 1.214-.293 2.145v4.01c0 1.332-.29 2.343-.868 3.032-.578.69-1.418 1.034-2.519 1.034h-1.021c-.439 0-.716-.021-.833-.063-.117-.042-.175-.147-.175-.314 0-.233.154-.387.462-.461l.56-.126c1.231-.28 1.847-1.495 1.847-3.647v-3.814c0-1.444.35-2.464 1.05-3.06l.265-.224c.13-.111.196-.195.196-.251 0-.065-.065-.15-.196-.252l-.266-.223c-.7-.596-1.05-1.616-1.05-3.06zM5.323 8.425V4.611c0-1.286.156-2.178.469-2.676.313-.498.963-.882 1.952-1.153.299-.083.448-.218.448-.405C8.192.126 7.856 0 7.184 0H6.163C5.053 0 4.21.345 3.637 1.034c-.574.69-.86 1.695-.86 3.018v4.024c0 .931-.101 1.648-.302 2.151-.2.503-.571.974-1.112 1.412-.159.13-.238.237-.238.321 0 .084.08.191.238.321.55.447.924.92 1.12 1.418.195.499.293 1.214.293 2.145v4.01c0 1.332.29 2.343.868 3.032.578.69 1.418 1.034 2.519 1.034h1.021c.439 0 .716-.021.833-.063.117-.042.175-.147.175-.314 0-.233-.154-.387-.462-.461l-.56-.126c-1.231-.28-1.847-1.495-1.847-3.647v-3.814c0-1.444-.35-2.464-1.05-3.06l-.265-.224c-.13-.111-.196-.195-.196-.251 0-.065.065-.149.196-.252l.266-.223c.7-.596 1.05-1.616 1.05-3.06z"
    fill="#130B43"
  />
    </svg>
